<svg width="583" height="206" fill="none" xmlns="http://www.w3.org/2000/svg"><path d="M103 187.546c-3 .047-5.959-.693-8.583-2.146l-2.575-1.459a130.215 130.215 0 01-66.092-113.3v-1.202a17.167 17.167 0 018.583-15.02L94.417 20.6a17.166 17.166 0 0117.166 0l60.084 33.819a17.169 17.169 0 018.583 15.02v1.202a130.212 130.212 0 01-66.263 113.3l-2.575 1.459a17.173 17.173 0 01-8.412 2.146z" fill="#343235"/><path d="M103 187.546c-3 .047-5.959-.693-8.583-2.146l-2.575-1.459a130.214 130.214 0 01-66.092-113.3v-1.202a17.167 17.167 0 018.583-15.02L94.417 20.6c2.61-1.507 5.57-2.3 8.583-2.3s5.802 22.193 8.412 23.7L121.5 69.44c-7.513 1.2 0 15.56 9.5 15.56-9.5 15-9.5 8 17.5 23v12.5c-.022 23.061 0 0 13.939 15.751a130.215 130.215 0 01-48.452 47.69l-2.575 1.459a17.173 17.173 0 01-8.412 2.146z" fill="#44B517"/><mask id="a" style="mask-type:alpha" maskUnits="userSpaceOnUse" x="0" y="0" width="206" height="206"><path d="M103 187.546c-3 .047-5.959-.693-8.583-2.146l-2.575-1.459a130.214 130.214 0 01-66.092-113.3v-1.202a17.167 17.167 0 018.583-15.02L94.417 20.6a17.166 17.166 0 0117.166 0l60.084 33.819a17.169 17.169 0 018.583 15.02v1.202a130.212 130.212 0 01-66.263 113.3l-2.575 1.459a17.173 17.173 0 01-8.412 2.146z" fill="#343235"/></mask><g filter="url(#filter0_d_324_741)" mask="url(#a)"><path d="M164.198 130.943c6.102 11.259-3.802 24.495-16.326 21.816l-5.573-1.193a15 15 0 01-11.342-10.751L92.507-1.329l42.569 78.543 29.122 53.729z" fill="#fff"/></g><path d="M220.684 115c-1.232 0-2.268-.392-3.108-1.176-.784-.84-1.176-1.876-1.176-3.108v-37.38c0-1.288.392-2.324 1.176-3.108.84-.784 1.876-1.176 3.108-1.176 1.288 0 2.324.392 3.108 1.176.784.784 1.176 1.82 1.176 3.108v37.38c0 1.232-.392 2.268-1.176 3.108-.784.784-1.82 1.176-3.108 1.176zm0-53.424c-1.512 0-2.828-.532-3.948-1.596-1.064-1.12-1.596-2.436-1.596-3.948s.532-2.8 1.596-3.864c1.12-1.12 2.436-1.68 3.948-1.68s2.8.56 3.864 1.68c1.12 1.064 1.68 2.352 1.68 3.864s-.56 2.828-1.68 3.948c-1.064 1.064-2.352 1.596-3.864 1.596zm24.508 53.508c-1.232 0-2.268-.392-3.108-1.176-.784-.84-1.176-1.876-1.176-3.108V73.336c0-1.288.392-2.324 1.176-3.108.84-.784 1.876-1.176 3.108-1.176 1.288 0 2.324.392 3.108 1.176.784.784 1.176 1.82 1.176 3.108v.924c1.736-1.736 3.836-3.108 6.3-4.116 2.464-1.008 5.124-1.512 7.98-1.512 3.864 0 7.308.84 10.332 2.52 3.08 1.624 5.488 4.032 7.224 7.224 1.792 3.192 2.688 7.112 2.688 11.76V110.8c0 1.232-.42 2.268-1.26 3.108-.784.784-1.792 1.176-3.024 1.176s-2.268-.392-3.108-1.176c-.784-.84-1.176-1.876-1.176-3.108V90.136c0-4.76-1.288-8.232-3.864-10.416-2.52-2.24-5.684-3.36-9.492-3.36-2.352 0-4.48.476-6.384 1.428s-3.416 2.24-4.536 3.864c-1.12 1.568-1.68 3.388-1.68 5.46V110.8c0 1.232-.392 2.268-1.176 3.108-.784.784-1.82 1.176-3.108 1.176zm65.971-.168c-1.736 0-3.08-.924-4.032-2.772l-17.808-37.548c-.448-.952-.504-1.876-.168-2.772.392-.952 1.12-1.68 2.184-2.184.952-.504 1.904-.588 2.856-.252 1.008.336 1.764.98 2.268 1.932l14.616 31.5 14.448-31.5c.504-.952 1.26-1.596 2.268-1.932 1.064-.336 2.128-.252 3.192.252 1.008.448 1.68 1.148 2.016 2.1.336.952.28 1.904-.168 2.856l-17.808 37.548c-.84 1.848-2.128 2.772-3.864 2.772zm35.603.084c-1.232 0-2.268-.392-3.108-1.176-.784-.84-1.176-1.876-1.176-3.108v-37.38c0-1.288.392-2.324 1.176-3.108.84-.784 1.876-1.176 3.108-1.176 1.288 0 2.324.392 3.108 1.176.784.784 1.176 1.82 1.176 3.108v37.38c0 1.232-.392 2.268-1.176 3.108-.784.784-1.82 1.176-3.108 1.176zm0-53.424c-1.512 0-2.828-.532-3.948-1.596-1.064-1.12-1.596-2.436-1.596-3.948s.532-2.8 1.596-3.864c1.12-1.12 2.436-1.68 3.948-1.68s2.8.56 3.864 1.68c1.12 1.064 1.68 2.352 1.68 3.864s-.56 2.828-1.68 3.948c-1.064 1.064-2.352 1.596-3.864 1.596zm36.94 53.76c-3.92 0-7.56-.588-10.92-1.764-3.304-1.232-5.88-2.772-7.728-4.62-.84-.896-1.204-1.904-1.092-3.024.168-1.176.728-2.128 1.68-2.856 1.12-.896 2.212-1.26 3.276-1.092 1.12.112 2.072.588 2.856 1.428.952 1.064 2.464 2.072 4.536 3.024 2.128.896 4.48 1.344 7.056 1.344 3.248 0 5.712-.532 7.392-1.596 1.736-1.064 2.632-2.436 2.688-4.116.056-1.68-.756-3.136-2.436-4.368-1.624-1.232-4.62-2.24-8.988-3.024-5.656-1.12-9.772-2.8-12.348-5.04-2.52-2.24-3.78-4.984-3.78-8.232 0-2.856.84-5.208 2.52-7.056 1.68-1.904 3.836-3.304 6.468-4.2a24.016 24.016 0 018.232-1.428c3.696 0 6.972.588 9.828 1.764 2.856 1.176 5.124 2.8 6.804 4.872.784.896 1.148 1.848 1.092 2.856-.056.952-.532 1.764-1.428 2.436-.896.616-1.96.812-3.192.588-1.232-.224-2.268-.728-3.108-1.512-1.4-1.344-2.912-2.268-4.536-2.772-1.624-.504-3.5-.756-5.628-.756-2.464 0-4.564.42-6.3 1.26-1.68.84-2.52 2.072-2.52 3.696 0 1.008.252 1.932.756 2.772.56.784 1.624 1.512 3.192 2.184 1.568.616 3.864 1.232 6.888 1.848 6.328 1.232 10.696 2.996 13.104 5.292 2.464 2.24 3.696 5.012 3.696 8.316 0 2.576-.7 4.9-2.1 6.972-1.344 2.072-3.36 3.724-6.048 4.956-2.632 1.232-5.936 1.848-9.912 1.848zm34.017-.336c-1.232 0-2.268-.392-3.108-1.176-.784-.84-1.176-1.876-1.176-3.108v-37.38c0-1.288.392-2.324 1.176-3.108.84-.784 1.876-1.176 3.108-1.176 1.288 0 2.324.392 3.108 1.176.784.784 1.176 1.82 1.176 3.108v37.38c0 1.232-.392 2.268-1.176 3.108-.784.784-1.82 1.176-3.108 1.176zm0-53.424c-1.512 0-2.828-.532-3.948-1.596-1.064-1.12-1.596-2.436-1.596-3.948s.532-2.8 1.596-3.864c1.12-1.12 2.436-1.68 3.948-1.68s2.8.56 3.864 1.68c1.12 1.064 1.68 2.352 1.68 3.864s-.56 2.828-1.68 3.948c-1.064 1.064-2.352 1.596-3.864 1.596zm43.324 53.76c-4.368 0-8.288-1.008-11.76-3.024-3.472-2.072-6.216-4.872-8.232-8.4-2.016-3.528-3.052-7.504-3.108-11.928V53.68c0-1.288.392-2.324 1.176-3.108.84-.784 1.876-1.176 3.108-1.176 1.288 0 2.324.392 3.108 1.176.784.784 1.176 1.82 1.176 3.108v22.68a21.259 21.259 0 017.056-5.544c2.8-1.4 5.852-2.1 9.156-2.1 4.088 0 7.756 1.036 11.004 3.108 3.248 2.016 5.796 4.788 7.644 8.316 1.904 3.472 2.856 7.42 2.856 11.844 0 4.424-1.036 8.4-3.108 11.928-2.016 3.528-4.76 6.328-8.232 8.4-3.472 2.016-7.42 3.024-11.844 3.024zm0-7.56c2.856 0 5.404-.672 7.644-2.016 2.24-1.4 4.004-3.304 5.292-5.712 1.344-2.408 2.016-5.096 2.016-8.064 0-3.024-.672-5.712-2.016-8.064-1.288-2.352-3.052-4.2-5.292-5.544-2.24-1.4-4.788-2.1-7.644-2.1-2.8 0-5.348.7-7.644 2.1-2.24 1.344-4.004 3.192-5.292 5.544-1.288 2.352-1.932 5.04-1.932 8.064 0 2.968.644 5.656 1.932 8.064 1.288 2.408 3.052 4.312 5.292 5.712 2.296 1.344 4.844 2.016 7.644 2.016zM507.929 115c-2.464 0-4.648-.672-6.552-2.016-1.904-1.344-3.388-3.164-4.452-5.46-1.064-2.352-1.596-5.04-1.596-8.064V53.596c0-1.232.392-2.24 1.176-3.024.784-.784 1.792-1.176 3.024-1.176s2.24.392 3.024 1.176c.784.784 1.176 1.792 1.176 3.024V99.46c0 2.072.392 3.78 1.176 5.124.784 1.344 1.792 2.016 3.024 2.016h2.1c1.12 0 2.016.392 2.688 1.176.728.784 1.092 1.792 1.092 3.024s-.532 2.24-1.596 3.024c-1.064.784-2.436 1.176-4.116 1.176h-.168zm33.309.336c-4.648 0-8.792-.98-12.432-2.94-3.584-2.016-6.412-4.76-8.484-8.232-2.016-3.528-3.024-7.56-3.024-12.096 0-4.592.952-8.624 2.856-12.096 1.96-3.528 4.648-6.272 8.064-8.232 3.416-2.016 7.336-3.024 11.76-3.024 4.368 0 8.12.98 11.256 2.94 3.136 1.904 5.516 4.564 7.14 7.98 1.68 3.36 2.52 7.252 2.52 11.676 0 1.064-.364 1.96-1.092 2.688-.728.672-1.652 1.008-2.772 1.008h-31.92c.616 3.864 2.38 7.028 5.292 9.492 2.968 2.408 6.58 3.612 10.836 3.612 1.736 0 3.5-.308 5.292-.924 1.848-.672 3.332-1.428 4.452-2.268.84-.616 1.736-.924 2.688-.924 1.008-.056 1.876.224 2.604.84.952.84 1.456 1.764 1.512 2.772.056 1.008-.392 1.876-1.344 2.604-1.904 1.512-4.284 2.744-7.14 3.696-2.8.952-5.488 1.428-8.064 1.428zm-1.26-39.396c-4.144 0-7.476 1.148-9.996 3.444-2.52 2.296-4.116 5.264-4.788 8.904h27.972c-.504-3.584-1.876-6.524-4.116-8.82-2.24-2.352-5.264-3.528-9.072-3.528z" fill="#44B517"/><path d="M229.612 136.02V153h-1.236v-8.136h-10.632V153h-1.236v-16.98h1.236v7.92h10.632v-7.92h1.236zm12.474 9.804c0-.64-.092-1.212-.276-1.716a3.577 3.577 0 00-.756-1.296 3.247 3.247 0 00-1.176-.804 3.74 3.74 0 00-1.488-.288c-.616 0-1.168.096-1.656.288a3.685 3.685 0 00-1.272.828c-.352.36-.636.792-.852 1.296a6.032 6.032 0 00-.432 1.692h7.908zm-7.968.732v.228c0 .896.104 1.684.312 2.364.208.68.504 1.252.888 1.716.384.456.848.8 1.392 1.032.544.232 1.152.348 1.824.348.6 0 1.12-.064 1.56-.192.44-.136.808-.284 1.104-.444.304-.168.544-.316.72-.444.176-.136.304-.204.384-.204.104 0 .184.04.24.12l.312.384c-.192.24-.448.464-.768.672a5.446 5.446 0 01-1.056.54c-.384.144-.8.26-1.248.348-.44.088-.884.132-1.332.132-.816 0-1.56-.14-2.232-.42a4.794 4.794 0 01-1.728-1.248c-.48-.544-.852-1.208-1.116-1.992-.256-.792-.384-1.696-.384-2.712 0-.856.12-1.644.36-2.364.248-.728.6-1.352 1.056-1.872a4.85 4.85 0 011.692-1.236c.672-.296 1.432-.444 2.28-.444.672 0 1.296.116 1.872.348a4.203 4.203 0 011.5 1.02c.424.44.756.984.996 1.632.248.648.372 1.392.372 2.232 0 .176-.024.296-.072.36-.048.064-.128.096-.24.096h-8.688zm16.332 5.628c.504 0 .96-.06 1.368-.18.408-.12.752-.292 1.032-.516.28-.224.496-.496.648-.816.152-.32.228-.676.228-1.068 0-.36-.06-.688-.18-.984a1.825 1.825 0 00-.576-.756c-.256-.216-.592-.38-1.008-.492-.408-.12-.9-.18-1.476-.18h-3.156v4.992h3.12zm-3.12-10.332v4.572h2.832c.432 0 .832-.056 1.2-.168.368-.12.684-.288.948-.504a2.264 2.264 0 00.84-1.776c0-.272-.052-.532-.156-.78a1.64 1.64 0 00-.504-.684c-.232-.2-.54-.36-.924-.48-.376-.12-.844-.18-1.404-.18h-2.832zm2.868-.792c.72 0 1.332.076 1.836.228.504.144.912.344 1.224.6.312.248.54.54.684.876.144.336.216.688.216 1.056 0 .264-.04.544-.12.84-.08.288-.216.568-.408.84a2.868 2.868 0 01-.78.732c-.32.216-.724.376-1.212.48 1.08.128 1.876.452 2.388.972.512.512.768 1.156.768 1.932 0 .536-.108 1.016-.324 1.44a2.964 2.964 0 01-.888 1.056 4.034 4.034 0 01-1.368.66 6.32 6.32 0 01-1.752.228h-4.236v-11.94h3.972zm17.43 0V153h-1.14v-9.624a5.79 5.79 0 01.048-.744 5.514 5.514 0 01-.168.312c-.048.088-.1.168-.156.24-.016.016-.128.168-.336.456-.208.28-.484.644-.828 1.092-.336.448-.72.956-1.152 1.524l-1.296 1.74-3.54 4.716a.913.913 0 01-.192.204.382.382 0 01-.24.084h-.66v-11.94h1.152v9.624a5.79 5.79 0 01-.048.744c.048-.112.1-.212.156-.3.056-.096.108-.18.156-.252.008-.016.116-.164.324-.444a382.891 382.891 0 001.98-2.628 4706.897 4706.897 0 014.848-6.444.735.735 0 01.18-.204.398.398 0 01.252-.096h.66zm12.49 11.088v-10.176h-4.824c-.088 1.592-.224 2.968-.408 4.128-.176 1.16-.388 2.144-.636 2.952-.24.808-.504 1.46-.792 1.956-.28.496-.564.876-.852 1.14h7.512zm3.3-.024v4.752c0 .256-.12.384-.36.384h-.66V153h-11.436v3.924a.335.335 0 01-.084.228c-.048.072-.124.108-.228.108h-.708v-5.112h.468c.288 0 .572-.06.852-.18.288-.12.564-.332.828-.636.272-.312.528-.732.768-1.26.24-.536.456-1.212.648-2.028.192-.824.36-1.808.504-2.952a52.28 52.28 0 00.324-4.032h6.9v11.064h2.184zm12.171-11.064V153h-1.14v-9.624a5.79 5.79 0 01.048-.744 5.514 5.514 0 01-.168.312c-.048.088-.1.168-.156.24-.016.016-.128.168-.336.456-.208.28-.484.644-.828 1.092-.336.448-.72.956-1.152 1.524l-1.296 1.74-3.54 4.716a.913.913 0 01-.192.204.382.382 0 01-.24.084h-.66v-11.94h1.152v9.624a5.79 5.79 0 01-.048.744c.048-.112.1-.212.156-.3.056-.096.108-.18.156-.252.008-.016.116-.164.324-.444a382.891 382.891 0 001.98-2.628 4706.897 4706.897 0 014.848-6.444.735.735 0 01.18-.204.398.398 0 01.252-.096h.66zm16.606-.06v12h-1.02v-9.624a5.999 5.999 0 01.084-.876l-4.92 8.244a.728.728 0 01-.144.168.303.303 0 01-.204.072h-.132a.303.303 0 01-.204-.072.728.728 0 01-.144-.168l-5.052-8.268c.032.136.052.288.06.456.016.16.024.308.024.444V153h-1.02v-12h.84c.08 0 .156.02.228.06.08.032.148.1.204.204l4.848 7.788c.104.192.2.404.288.636.072-.208.164-.42.276-.636l4.728-7.788c.056-.112.12-.184.192-.216a.672.672 0 01.252-.048h.816zm10.629 6.228c-1.136.04-2.116.132-2.94.276-.816.136-1.492.324-2.028.564-.528.24-.92.528-1.176.864a1.783 1.783 0 00-.384 1.128c0 .4.064.748.192 1.044.136.288.312.528.528.72.224.184.48.32.768.408.288.088.588.132.9.132.464 0 .888-.048 1.272-.144a4.971 4.971 0 001.08-.42c.336-.184.648-.4.936-.648.288-.248.572-.516.852-.804v-3.12zm-7.02-4.476c.624-.624 1.28-1.096 1.968-1.416.688-.32 1.468-.48 2.34-.48.64 0 1.2.104 1.68.312.48.2.876.492 1.188.876.32.376.56.836.72 1.38.16.536.24 1.136.24 1.8V153h-.456c-.24 0-.388-.112-.444-.336l-.168-1.536c-.328.32-.656.608-.984.864-.32.256-.656.472-1.008.648a5.205 5.205 0 01-1.14.408 5.868 5.868 0 01-1.344.144 3.96 3.96 0 01-1.188-.18 3.06 3.06 0 01-1.032-.552 2.786 2.786 0 01-.72-.948c-.176-.392-.264-.86-.264-1.404 0-.504.144-.972.432-1.404.288-.432.74-.808 1.356-1.128.616-.32 1.404-.576 2.364-.768.968-.192 2.128-.304 3.48-.336v-1.248c0-1.104-.24-1.952-.72-2.544-.472-.6-1.176-.9-2.112-.9-.576 0-1.068.08-1.476.24-.4.16-.74.336-1.02.528s-.508.368-.684.528c-.176.16-.324.24-.444.24a.363.363 0 01-.216-.06.54.54 0 01-.144-.156l-.204-.348zm18.321 4.128v-5.028h-2.556c-.56 0-1.032.08-1.416.24a2.78 2.78 0 00-.924.612c-.232.248-.4.524-.504.828a2.977 2.977 0 00-.144.9c0 .384.076.728.228 1.032.16.304.388.56.684.768a3.35 3.35 0 001.08.48c.424.112.9.168 1.428.168h2.124zm1.116-5.82V153h-1.116v-5.364h-1.44c-.2 0-.372.012-.516.036-.136.024-.26.064-.372.12-.104.056-.2.128-.288.216-.088.08-.18.184-.276.312l-3.492 4.272a.866.866 0 01-.3.312c-.112.064-.272.096-.48.096h-.792l4.044-4.896c.216-.344.508-.576.876-.696-.656-.048-1.216-.164-1.68-.348a3.687 3.687 0 01-1.128-.684 2.67 2.67 0 01-.636-.936 3.24 3.24 0 01.024-2.268c.144-.392.376-.744.696-1.056.328-.312.752-.564 1.272-.756.52-.2 1.152-.3 1.896-.3h3.708zm9.626 1.128c.424-.392.948-.708 1.572-.948.632-.248 1.372-.372 2.22-.372.704 0 1.32.088 1.848.264.528.176.968.408 1.32.696.352.28.612.6.78.96.176.36.264.724.264 1.092 0 .256-.048.524-.144.804a2.331 2.331 0 01-.444.78c-.2.248-.468.476-.804.684-.328.2-.732.356-1.212.468.96.2 1.688.572 2.184 1.116.496.536.744 1.18.744 1.932 0 .52-.116.996-.348 1.428a3.496 3.496 0 01-.96 1.104c-.408.304-.884.54-1.428.708a5.908 5.908 0 01-1.752.252c-.44 0-.864-.044-1.272-.132a5.571 5.571 0 01-1.14-.348 5.057 5.057 0 01-.96-.54 3.49 3.49 0 01-.696-.672l.3-.384a.296.296 0 01.24-.12c.096 0 .22.068.372.204.16.136.372.284.636.444.272.16.604.308.996.444.4.136.884.204 1.452.204.528 0 1.004-.064 1.428-.192a3.59 3.59 0 001.092-.552c.304-.24.536-.524.696-.852.168-.328.252-.688.252-1.08 0-.368-.08-.704-.24-1.008a2.052 2.052 0 00-.696-.792c-.304-.224-.684-.396-1.14-.516a5.833 5.833 0 00-1.572-.192h-1.344v-.792h1.344c.512 0 .976-.056 1.392-.168.424-.12.78-.28 1.068-.48.296-.208.524-.448.684-.72a1.875 1.875 0 00.048-1.74 2.001 2.001 0 00-.588-.72c-.264-.208-.6-.372-1.008-.492-.4-.128-.876-.192-1.428-.192-.528 0-.98.052-1.356.156a4.932 4.932 0 00-1.536.696c-.144.104-.252.156-.324.156a.3.3 0 01-.156-.036.393.393 0 01-.12-.132l-.264-.42zm18.223 5.04c-1.136.04-2.116.132-2.94.276-.816.136-1.492.324-2.028.564-.528.24-.92.528-1.176.864a1.783 1.783 0 00-.384 1.128c0 .4.064.748.192 1.044.136.288.312.528.528.72.224.184.48.32.768.408.288.088.588.132.9.132.464 0 .888-.048 1.272-.144a4.971 4.971 0 001.08-.42c.336-.184.648-.4.936-.648.288-.248.572-.516.852-.804v-3.12zm-7.02-4.476c.624-.624 1.28-1.096 1.968-1.416.688-.32 1.468-.48 2.34-.48.64 0 1.2.104 1.68.312.48.2.876.492 1.188.876.32.376.56.836.72 1.38.16.536.24 1.136.24 1.8V153h-.456c-.24 0-.388-.112-.444-.336l-.168-1.536c-.328.32-.656.608-.984.864-.32.256-.656.472-1.008.648a5.205 5.205 0 01-1.14.408 5.868 5.868 0 01-1.344.144 3.96 3.96 0 01-1.188-.18 3.06 3.06 0 01-1.032-.552 2.786 2.786 0 01-.72-.948c-.176-.392-.264-.86-.264-1.404 0-.504.144-.972.432-1.404.288-.432.74-.808 1.356-1.128.616-.32 1.404-.576 2.364-.768.968-.192 2.128-.304 3.48-.336v-1.248c0-1.104-.24-1.952-.72-2.544-.472-.6-1.176-.9-2.112-.9-.576 0-1.068.08-1.476.24-.4.16-.74.336-1.02.528s-.508.368-.684.528c-.176.16-.324.24-.444.24a.363.363 0 01-.216-.06.54.54 0 01-.144-.156l-.204-.348zm29.685 9.372v4.752c0 .256-.12.384-.36.384h-.66V153h-16.704v-11.94h1.152v11.064h6.048V141.06h1.14v11.064h6.048V141.06h1.152v11.064h2.184zm12.186-11.064V153h-1.14v-9.624a5.79 5.79 0 01.048-.744 5.514 5.514 0 01-.168.312c-.048.088-.1.168-.156.24-.016.016-.128.168-.336.456-.208.28-.484.644-.828 1.092-.336.448-.72.956-1.152 1.524l-1.296 1.74-3.54 4.716a.913.913 0 01-.192.204.382.382 0 01-.24.084h-.66v-11.94h1.152v9.624a5.79 5.79 0 01-.048.744c.048-.112.1-.212.156-.3.056-.096.108-.18.156-.252.008-.016.116-.164.324-.444a382.891 382.891 0 001.98-2.628 4706.897 4706.897 0 014.848-6.444.735.735 0 01.18-.204.398.398 0 01.252-.096h.66zm13.485.876h-4.992V153h-1.152v-11.064h-4.992v-.876h11.136v.876zm8.851 5.292c-1.136.04-2.116.132-2.94.276-.816.136-1.492.324-2.028.564-.528.24-.92.528-1.176.864a1.783 1.783 0 00-.384 1.128c0 .4.064.748.192 1.044.136.288.312.528.528.72.224.184.48.32.768.408.288.088.588.132.9.132.464 0 .888-.048 1.272-.144a4.971 4.971 0 001.08-.42c.336-.184.648-.4.936-.648.288-.248.572-.516.852-.804v-3.12zm-7.02-4.476c.624-.624 1.28-1.096 1.968-1.416.688-.32 1.468-.48 2.34-.48.64 0 1.2.104 1.68.312.48.2.876.492 1.188.876.32.376.56.836.72 1.38.16.536.24 1.136.24 1.8V153h-.456c-.24 0-.388-.112-.444-.336l-.168-1.536c-.328.32-.656.608-.984.864-.32.256-.656.472-1.008.648a5.205 5.205 0 01-1.14.408 5.868 5.868 0 01-1.344.144 3.96 3.96 0 01-1.188-.18 3.06 3.06 0 01-1.032-.552 2.786 2.786 0 01-.72-.948c-.176-.392-.264-.86-.264-1.404 0-.504.144-.972.432-1.404.288-.432.74-.808 1.356-1.128.616-.32 1.404-.576 2.364-.768.968-.192 2.128-.304 3.48-.336v-1.248c0-1.104-.24-1.952-.72-2.544-.472-.6-1.176-.9-2.112-.9-.576 0-1.068.08-1.476.24-.4.16-.74.336-1.02.528s-.508.368-.684.528c-.176.16-.324.24-.444.24a.363.363 0 01-.216-.06.54.54 0 01-.144-.156l-.204-.348z" fill="#343235"/><defs><filter id="filter0_d_324_741" x="70.506" y="-7.329" width="103.542" height="184.438" filterUnits="userSpaceOnUse" color-interpolation-filters="sRGB"><feFlood flood-opacity="0" result="BackgroundImageFix"/><feColorMatrix in="SourceAlpha" values="0 0 0 0 0 0 0 0 0 0 0 0 0 0 0 0 0 0 127 0" result="hardAlpha"/><feOffset dx="-7" dy="9"/><feGaussianBlur stdDeviation="7.5"/><feComposite in2="hardAlpha" operator="out"/><feColorMatrix values="0 0 0 0 0.208084 0 0 0 0 0.470833 0 0 0 0 0.103976 0 0 0 0.75 0"/><feBlend in2="BackgroundImageFix" result="effect1_dropShadow_324_741"/><feBlend in="SourceGraphic" in2="effect1_dropShadow_324_741" result="shape"/></filter></defs></svg>