<svg width="583" height="206" viewBox="0 0 583 206" fill="none" xmlns="http://www.w3.org/2000/svg">
<path d="M103 187.546C100 187.593 97.041 186.853 94.4166 185.4L91.8416 183.941C71.7847 172.593 55.0985 156.126 43.4871 136.221C31.8757 116.316 25.755 93.6855 25.7499 70.641V69.4394C25.7227 66.3999 26.503 63.4077 28.011 60.7686C29.5191 58.1295 31.7008 55.9382 34.3332 54.4185L94.4166 20.6002C97.0262 19.0935 99.9865 18.3003 103 18.3003C106.013 18.3003 108.974 19.0935 111.583 20.6002L171.667 54.4185C174.299 55.9382 176.481 58.1295 177.989 60.7686C179.497 63.4077 180.277 66.3999 180.25 69.4394V70.641C180.228 93.7024 174.081 116.344 162.439 136.251C150.796 156.158 134.075 172.616 113.987 183.941L111.412 185.4C108.838 186.824 105.941 187.563 103 187.546Z" fill="#A5A5A5"/>
<path d="M103 187.546C100 187.593 97.041 186.853 94.4166 185.4L91.8416 183.941C71.7846 172.593 55.0985 156.126 43.4871 136.221C31.8757 116.316 25.755 93.6855 25.7499 70.641V69.4394C25.7227 66.3999 26.503 63.4077 28.011 60.7686C29.5191 58.1295 31.7008 55.9382 34.3332 54.4185L94.4166 20.6002C97.0262 19.0935 99.9865 18.3003 103 18.3003C106.013 18.3003 108.802 40.4933 111.412 42L121.5 69.4394C113.987 70.641 121.5 85 131 85C121.5 100 121.5 93 148.5 108V120.5C148.478 143.561 148.5 120.5 162.439 136.251C150.796 156.158 134.075 172.616 113.987 183.941L111.412 185.4C108.838 186.824 105.941 187.563 103 187.546Z" fill="#44B517"/>
<mask id="mask0_356_690" style="mask-type:alpha" maskUnits="userSpaceOnUse" x="0" y="0" width="206" height="206">
<path d="M103 187.546C100 187.593 97.041 186.853 94.4166 185.4L91.8416 183.941C71.7846 172.593 55.0985 156.126 43.4871 136.221C31.8757 116.316 25.755 93.6855 25.7499 70.641V69.4394C25.7227 66.3999 26.503 63.4077 28.011 60.7686C29.5191 58.1295 31.7008 55.9382 34.3332 54.4185L94.4166 20.6002C97.0262 19.0935 99.9865 18.3003 103 18.3003C106.013 18.3003 108.974 19.0935 111.583 20.6002L171.667 54.4185C174.299 55.9382 176.481 58.1295 177.989 60.7686C179.497 63.4077 180.277 66.3999 180.25 69.4394V70.641C180.228 93.7024 174.081 116.344 162.439 136.251C150.796 156.158 134.075 172.616 113.987 183.941L111.412 185.4C108.838 186.824 105.941 187.563 103 187.546Z" fill="#343235"/>
</mask>
<g mask="url(#mask0_356_690)">
<g filter="url(#filter0_d_356_690)">
<path d="M164.198 130.943C170.3 142.202 160.396 155.438 147.872 152.759L142.299 151.566C136.803 150.391 132.425 146.241 130.957 140.815L92.5063 -1.32945L135.076 77.2137L164.198 130.943Z" fill="white"/>
</g>
</g>
<path d="M220.684 115C219.452 115 218.416 114.608 217.576 113.824C216.792 112.984 216.4 111.948 216.4 110.716V73.336C216.4 72.048 216.792 71.012 217.576 70.228C218.416 69.444 219.452 69.052 220.684 69.052C221.972 69.052 223.008 69.444 223.792 70.228C224.576 71.012 224.968 72.048 224.968 73.336V110.716C224.968 111.948 224.576 112.984 223.792 113.824C223.008 114.608 221.972 115 220.684 115ZM220.684 61.576C219.172 61.576 217.856 61.044 216.736 59.98C215.672 58.86 215.14 57.544 215.14 56.032C215.14 54.52 215.672 53.232 216.736 52.168C217.856 51.048 219.172 50.488 220.684 50.488C222.196 50.488 223.484 51.048 224.548 52.168C225.668 53.232 226.228 54.52 226.228 56.032C226.228 57.544 225.668 58.86 224.548 59.98C223.484 61.044 222.196 61.576 220.684 61.576ZM245.192 115.084C243.96 115.084 242.924 114.692 242.084 113.908C241.3 113.068 240.908 112.032 240.908 110.8V73.336C240.908 72.048 241.3 71.012 242.084 70.228C242.924 69.444 243.96 69.052 245.192 69.052C246.48 69.052 247.516 69.444 248.3 70.228C249.084 71.012 249.476 72.048 249.476 73.336V74.26C251.212 72.524 253.312 71.152 255.776 70.144C258.24 69.136 260.9 68.632 263.756 68.632C267.62 68.632 271.064 69.472 274.088 71.152C277.168 72.776 279.576 75.184 281.312 78.376C283.104 81.568 284 85.488 284 90.136V110.8C284 112.032 283.58 113.068 282.74 113.908C281.956 114.692 280.948 115.084 279.716 115.084C278.484 115.084 277.448 114.692 276.608 113.908C275.824 113.068 275.432 112.032 275.432 110.8V90.136C275.432 85.376 274.144 81.904 271.568 79.72C269.048 77.48 265.884 76.36 262.076 76.36C259.724 76.36 257.596 76.836 255.692 77.788C253.788 78.74 252.276 80.028 251.156 81.652C250.036 83.22 249.476 85.04 249.476 87.112V110.8C249.476 112.032 249.084 113.068 248.3 113.908C247.516 114.692 246.48 115.084 245.192 115.084ZM311.163 114.916C309.427 114.916 308.083 113.992 307.131 112.144L289.323 74.596C288.875 73.644 288.819 72.72 289.155 71.824C289.547 70.872 290.275 70.144 291.339 69.64C292.291 69.136 293.243 69.052 294.195 69.388C295.203 69.724 295.959 70.368 296.463 71.32L311.079 102.82L325.527 71.32C326.031 70.368 326.787 69.724 327.795 69.388C328.859 69.052 329.923 69.136 330.987 69.64C331.995 70.088 332.667 70.788 333.003 71.74C333.339 72.692 333.283 73.644 332.835 74.596L315.027 112.144C314.187 113.992 312.899 114.916 311.163 114.916ZM346.766 115C345.534 115 344.498 114.608 343.658 113.824C342.874 112.984 342.482 111.948 342.482 110.716V73.336C342.482 72.048 342.874 71.012 343.658 70.228C344.498 69.444 345.534 69.052 346.766 69.052C348.054 69.052 349.09 69.444 349.874 70.228C350.658 71.012 351.05 72.048 351.05 73.336V110.716C351.05 111.948 350.658 112.984 349.874 113.824C349.09 114.608 348.054 115 346.766 115ZM346.766 61.576C345.254 61.576 343.938 61.044 342.818 59.98C341.754 58.86 341.222 57.544 341.222 56.032C341.222 54.52 341.754 53.232 342.818 52.168C343.938 51.048 345.254 50.488 346.766 50.488C348.278 50.488 349.566 51.048 350.63 52.168C351.75 53.232 352.31 54.52 352.31 56.032C352.31 57.544 351.75 58.86 350.63 59.98C349.566 61.044 348.278 61.576 346.766 61.576ZM383.706 115.336C379.786 115.336 376.146 114.748 372.786 113.572C369.482 112.34 366.906 110.8 365.058 108.952C364.218 108.056 363.854 107.048 363.966 105.928C364.134 104.752 364.694 103.8 365.646 103.072C366.766 102.176 367.858 101.812 368.922 101.98C370.042 102.092 370.994 102.568 371.778 103.408C372.73 104.472 374.242 105.48 376.314 106.432C378.442 107.328 380.794 107.776 383.37 107.776C386.618 107.776 389.082 107.244 390.762 106.18C392.498 105.116 393.394 103.744 393.45 102.064C393.506 100.384 392.694 98.928 391.014 97.696C389.39 96.464 386.394 95.456 382.026 94.672C376.37 93.552 372.254 91.872 369.678 89.632C367.158 87.392 365.898 84.648 365.898 81.4C365.898 78.544 366.738 76.192 368.418 74.344C370.098 72.44 372.254 71.04 374.886 70.144C377.518 69.192 380.262 68.716 383.118 68.716C386.814 68.716 390.09 69.304 392.946 70.48C395.802 71.656 398.07 73.28 399.75 75.352C400.534 76.248 400.898 77.2 400.842 78.208C400.786 79.16 400.31 79.972 399.414 80.644C398.518 81.26 397.454 81.456 396.222 81.232C394.99 81.008 393.954 80.504 393.114 79.72C391.714 78.376 390.202 77.452 388.578 76.948C386.954 76.444 385.078 76.192 382.95 76.192C380.486 76.192 378.386 76.612 376.65 77.452C374.97 78.292 374.13 79.524 374.13 81.148C374.13 82.156 374.382 83.08 374.886 83.92C375.446 84.704 376.51 85.432 378.078 86.104C379.646 86.72 381.942 87.336 384.966 87.952C391.294 89.184 395.662 90.948 398.07 93.244C400.534 95.484 401.766 98.256 401.766 101.56C401.766 104.136 401.066 106.46 399.666 108.532C398.322 110.604 396.306 112.256 393.618 113.488C390.986 114.72 387.682 115.336 383.706 115.336ZM417.723 115C416.491 115 415.455 114.608 414.615 113.824C413.831 112.984 413.439 111.948 413.439 110.716V73.336C413.439 72.048 413.831 71.012 414.615 70.228C415.455 69.444 416.491 69.052 417.723 69.052C419.011 69.052 420.047 69.444 420.831 70.228C421.615 71.012 422.007 72.048 422.007 73.336V110.716C422.007 111.948 421.615 112.984 420.831 113.824C420.047 114.608 419.011 115 417.723 115ZM417.723 61.576C416.211 61.576 414.895 61.044 413.775 59.98C412.711 58.86 412.179 57.544 412.179 56.032C412.179 54.52 412.711 53.232 413.775 52.168C414.895 51.048 416.211 50.488 417.723 50.488C419.235 50.488 420.523 51.048 421.587 52.168C422.707 53.232 423.267 54.52 423.267 56.032C423.267 57.544 422.707 58.86 421.587 59.98C420.523 61.044 419.235 61.576 417.723 61.576ZM461.047 115.336C456.679 115.336 452.759 114.328 449.287 112.312C445.815 110.24 443.071 107.44 441.055 103.912C439.039 100.384 438.003 96.408 437.947 91.984V53.68C437.947 52.392 438.339 51.356 439.123 50.572C439.963 49.788 440.999 49.396 442.231 49.396C443.519 49.396 444.555 49.788 445.339 50.572C446.123 51.356 446.515 52.392 446.515 53.68V76.36C448.475 74.008 450.827 72.16 453.571 70.816C456.371 69.416 459.423 68.716 462.727 68.716C466.815 68.716 470.483 69.752 473.731 71.824C476.979 73.84 479.527 76.612 481.375 80.14C483.279 83.612 484.231 87.56 484.231 91.984C484.231 96.408 483.195 100.384 481.123 103.912C479.107 107.44 476.363 110.24 472.891 112.312C469.419 114.328 465.471 115.336 461.047 115.336ZM461.047 107.776C463.903 107.776 466.451 107.104 468.691 105.76C470.931 104.36 472.695 102.456 473.983 100.048C475.327 97.64 475.999 94.952 475.999 91.984C475.999 88.96 475.327 86.272 473.983 83.92C472.695 81.568 470.931 79.72 468.691 78.376C466.451 76.976 463.903 76.276 461.047 76.276C458.247 76.276 455.699 76.976 453.403 78.376C451.163 79.72 449.399 81.568 448.111 83.92C446.823 86.272 446.179 88.96 446.179 91.984C446.179 94.952 446.823 97.64 448.111 100.048C449.399 102.456 451.163 104.36 453.403 105.76C455.699 107.104 458.247 107.776 461.047 107.776ZM507.929 115C505.465 115 503.281 114.328 501.377 112.984C499.473 111.64 497.989 109.82 496.925 107.524C495.861 105.172 495.329 102.484 495.329 99.46V53.596C495.329 52.364 495.721 51.356 496.505 50.572C497.289 49.788 498.297 49.396 499.529 49.396C500.761 49.396 501.769 49.788 502.553 50.572C503.337 51.356 503.729 52.364 503.729 53.596V99.46C503.729 101.532 504.121 103.24 504.905 104.584C505.689 105.928 506.697 106.6 507.929 106.6H510.029C511.149 106.6 512.045 106.992 512.717 107.776C513.445 108.56 513.809 109.568 513.809 110.8C513.809 112.032 513.277 113.04 512.213 113.824C511.149 114.608 509.777 115 508.097 115H507.929ZM541.238 115.336C536.59 115.336 532.446 114.356 528.806 112.396C525.222 110.38 522.394 107.636 520.322 104.164C518.306 100.636 517.298 96.604 517.298 92.068C517.298 87.476 518.25 83.444 520.154 79.972C522.114 76.444 524.802 73.7 528.218 71.74C531.634 69.724 535.554 68.716 539.978 68.716C544.346 68.716 548.098 69.696 551.234 71.656C554.37 73.56 556.75 76.22 558.374 79.636C560.054 82.996 560.894 86.888 560.894 91.312C560.894 92.376 560.53 93.272 559.802 94C559.074 94.672 558.15 95.008 557.03 95.008H525.11C525.726 98.872 527.49 102.036 530.402 104.5C533.37 106.908 536.982 108.112 541.238 108.112C542.974 108.112 544.738 107.804 546.53 107.188C548.378 106.516 549.862 105.76 550.982 104.92C551.822 104.304 552.718 103.996 553.67 103.996C554.678 103.94 555.546 104.22 556.274 104.836C557.226 105.676 557.73 106.6 557.786 107.608C557.842 108.616 557.394 109.484 556.442 110.212C554.538 111.724 552.158 112.956 549.302 113.908C546.502 114.86 543.814 115.336 541.238 115.336ZM539.978 75.94C535.834 75.94 532.502 77.088 529.982 79.384C527.462 81.68 525.866 84.648 525.194 88.288H553.166C552.662 84.704 551.29 81.764 549.05 79.468C546.81 77.116 543.786 75.94 539.978 75.94Z" fill="#44B517"/>
<path d="M229.612 136.02V153H228.376V144.864H217.744V153H216.508V136.02H217.744V143.94H228.376V136.02H229.612ZM242.086 145.824C242.086 145.184 241.994 144.612 241.81 144.108C241.634 143.596 241.382 143.164 241.054 142.812C240.726 142.46 240.334 142.192 239.878 142.008C239.43 141.816 238.934 141.72 238.39 141.72C237.774 141.72 237.222 141.816 236.734 142.008C236.246 142.2 235.822 142.476 235.462 142.836C235.11 143.196 234.826 143.628 234.61 144.132C234.394 144.636 234.25 145.2 234.178 145.824H242.086ZM234.118 146.556V146.784C234.118 147.68 234.222 148.468 234.43 149.148C234.638 149.828 234.934 150.4 235.318 150.864C235.702 151.32 236.166 151.664 236.71 151.896C237.254 152.128 237.862 152.244 238.534 152.244C239.134 152.244 239.654 152.18 240.094 152.052C240.534 151.916 240.902 151.768 241.198 151.608C241.502 151.44 241.742 151.292 241.918 151.164C242.094 151.028 242.222 150.96 242.302 150.96C242.406 150.96 242.486 151 242.542 151.08L242.854 151.464C242.662 151.704 242.406 151.928 242.086 152.136C241.774 152.344 241.422 152.524 241.03 152.676C240.646 152.82 240.23 152.936 239.782 153.024C239.342 153.112 238.898 153.156 238.45 153.156C237.634 153.156 236.89 153.016 236.218 152.736C235.546 152.448 234.97 152.032 234.49 151.488C234.01 150.944 233.638 150.28 233.374 149.496C233.118 148.704 232.99 147.8 232.99 146.784C232.99 145.928 233.11 145.14 233.35 144.42C233.598 143.692 233.95 143.068 234.406 142.548C234.87 142.02 235.434 141.608 236.098 141.312C236.77 141.016 237.53 140.868 238.378 140.868C239.05 140.868 239.674 140.984 240.25 141.216C240.826 141.448 241.326 141.788 241.75 142.236C242.174 142.676 242.506 143.22 242.746 143.868C242.994 144.516 243.118 145.26 243.118 146.1C243.118 146.276 243.094 146.396 243.046 146.46C242.998 146.524 242.918 146.556 242.806 146.556H234.118ZM250.45 152.184C250.954 152.184 251.41 152.124 251.818 152.004C252.226 151.884 252.57 151.712 252.85 151.488C253.13 151.264 253.346 150.992 253.498 150.672C253.65 150.352 253.726 149.996 253.726 149.604C253.726 149.244 253.666 148.916 253.546 148.62C253.426 148.324 253.234 148.072 252.97 147.864C252.714 147.648 252.378 147.484 251.962 147.372C251.554 147.252 251.062 147.192 250.486 147.192H247.33V152.184H250.45ZM247.33 141.852V146.424H250.162C250.594 146.424 250.994 146.368 251.362 146.256C251.73 146.136 252.046 145.968 252.31 145.752C252.574 145.536 252.778 145.28 252.922 144.984C253.074 144.68 253.15 144.344 253.15 143.976C253.15 143.704 253.098 143.444 252.994 143.196C252.898 142.94 252.73 142.712 252.49 142.512C252.258 142.312 251.95 142.152 251.566 142.032C251.19 141.912 250.722 141.852 250.162 141.852H247.33ZM250.198 141.06C250.918 141.06 251.53 141.136 252.034 141.288C252.538 141.432 252.946 141.632 253.258 141.888C253.57 142.136 253.798 142.428 253.942 142.764C254.086 143.1 254.158 143.452 254.158 143.82C254.158 144.084 254.118 144.364 254.038 144.66C253.958 144.948 253.822 145.228 253.63 145.5C253.438 145.772 253.178 146.016 252.85 146.232C252.53 146.448 252.126 146.608 251.638 146.712C252.718 146.84 253.514 147.164 254.026 147.684C254.538 148.196 254.794 148.84 254.794 149.616C254.794 150.152 254.686 150.632 254.47 151.056C254.262 151.472 253.966 151.824 253.582 152.112C253.206 152.4 252.75 152.62 252.214 152.772C251.686 152.924 251.102 153 250.462 153H246.226V141.06H250.198ZM267.628 141.06V153H266.488V143.376C266.488 143.264 266.492 143.144 266.5 143.016C266.508 142.888 266.52 142.76 266.536 142.632C266.48 142.744 266.424 142.848 266.368 142.944C266.32 143.032 266.268 143.112 266.212 143.184C266.196 143.2 266.084 143.352 265.876 143.64C265.668 143.92 265.392 144.284 265.048 144.732C264.712 145.18 264.328 145.688 263.896 146.256C263.472 146.824 263.04 147.404 262.6 147.996C261.56 149.38 260.38 150.952 259.06 152.712C259.012 152.784 258.948 152.852 258.868 152.916C258.796 152.972 258.716 153 258.628 153H257.968V141.06H259.12V150.684C259.12 150.796 259.116 150.916 259.108 151.044C259.1 151.172 259.088 151.3 259.072 151.428C259.12 151.316 259.172 151.216 259.228 151.128C259.284 151.032 259.336 150.948 259.384 150.876C259.392 150.86 259.5 150.712 259.708 150.432C259.924 150.152 260.2 149.788 260.536 149.34C260.88 148.884 261.264 148.372 261.688 147.804C262.112 147.236 262.548 146.656 262.996 146.064C264.036 144.68 265.216 143.112 266.536 141.36C266.584 141.28 266.644 141.212 266.716 141.156C266.796 141.092 266.88 141.06 266.968 141.06H267.628ZM280.118 152.148V141.972H275.294C275.206 143.564 275.07 144.94 274.886 146.1C274.71 147.26 274.498 148.244 274.25 149.052C274.01 149.86 273.746 150.512 273.458 151.008C273.178 151.504 272.894 151.884 272.606 152.148H280.118ZM283.418 152.124V156.876C283.418 157.132 283.298 157.26 283.058 157.26H282.398V153H270.962V156.924C270.962 157.012 270.934 157.088 270.878 157.152C270.83 157.224 270.754 157.26 270.65 157.26H269.942V152.148H270.41C270.698 152.148 270.982 152.088 271.262 151.968C271.55 151.848 271.826 151.636 272.09 151.332C272.362 151.02 272.618 150.6 272.858 150.072C273.098 149.536 273.314 148.86 273.506 148.044C273.698 147.22 273.866 146.236 274.01 145.092C274.154 143.948 274.262 142.604 274.334 141.06H281.234V152.124H283.418ZM295.589 141.06V153H294.449V143.376C294.449 143.264 294.453 143.144 294.461 143.016C294.469 142.888 294.481 142.76 294.497 142.632C294.441 142.744 294.385 142.848 294.329 142.944C294.281 143.032 294.229 143.112 294.173 143.184C294.157 143.2 294.045 143.352 293.837 143.64C293.629 143.92 293.353 144.284 293.009 144.732C292.673 145.18 292.289 145.688 291.857 146.256C291.433 146.824 291.001 147.404 290.561 147.996C289.521 149.38 288.341 150.952 287.021 152.712C286.973 152.784 286.909 152.852 286.829 152.916C286.757 152.972 286.677 153 286.589 153H285.929V141.06H287.081V150.684C287.081 150.796 287.077 150.916 287.069 151.044C287.061 151.172 287.049 151.3 287.033 151.428C287.081 151.316 287.133 151.216 287.189 151.128C287.245 151.032 287.297 150.948 287.345 150.876C287.353 150.86 287.461 150.712 287.669 150.432C287.885 150.152 288.161 149.788 288.497 149.34C288.841 148.884 289.225 148.372 289.649 147.804C290.073 147.236 290.509 146.656 290.957 146.064C291.997 144.68 293.177 143.112 294.497 141.36C294.545 141.28 294.605 141.212 294.677 141.156C294.757 141.092 294.841 141.06 294.929 141.06H295.589ZM312.195 141V153H311.175V143.376C311.175 143.24 311.183 143.096 311.199 142.944C311.215 142.784 311.235 142.636 311.259 142.5L306.339 150.744C306.299 150.808 306.251 150.864 306.195 150.912C306.139 150.96 306.071 150.984 305.991 150.984H305.859C305.779 150.984 305.711 150.96 305.655 150.912C305.599 150.864 305.551 150.808 305.511 150.744L300.459 142.476C300.491 142.612 300.511 142.764 300.519 142.932C300.535 143.092 300.543 143.24 300.543 143.376V153H299.523V141H300.363C300.443 141 300.519 141.02 300.591 141.06C300.671 141.092 300.739 141.16 300.795 141.264L305.643 149.052C305.747 149.244 305.843 149.456 305.931 149.688C306.003 149.48 306.095 149.268 306.207 149.052L310.935 141.264C310.991 141.152 311.055 141.08 311.127 141.048C311.207 141.016 311.291 141 311.379 141H312.195ZM322.824 147.228C321.688 147.268 320.708 147.36 319.884 147.504C319.068 147.64 318.392 147.828 317.856 148.068C317.328 148.308 316.936 148.596 316.68 148.932C316.424 149.26 316.296 149.636 316.296 150.06C316.296 150.46 316.36 150.808 316.488 151.104C316.624 151.392 316.8 151.632 317.016 151.824C317.24 152.008 317.496 152.144 317.784 152.232C318.072 152.32 318.372 152.364 318.684 152.364C319.148 152.364 319.572 152.316 319.956 152.22C320.348 152.116 320.708 151.976 321.036 151.8C321.372 151.616 321.684 151.4 321.972 151.152C322.26 150.904 322.544 150.636 322.824 150.348V147.228ZM315.804 142.752C316.428 142.128 317.084 141.656 317.772 141.336C318.46 141.016 319.24 140.856 320.112 140.856C320.752 140.856 321.312 140.96 321.792 141.168C322.272 141.368 322.668 141.66 322.98 142.044C323.3 142.42 323.54 142.88 323.7 143.424C323.86 143.96 323.94 144.56 323.94 145.224V153H323.484C323.244 153 323.096 152.888 323.04 152.664L322.872 151.128C322.544 151.448 322.216 151.736 321.888 151.992C321.568 152.248 321.232 152.464 320.88 152.64C320.528 152.816 320.148 152.952 319.74 153.048C319.332 153.144 318.884 153.192 318.396 153.192C317.988 153.192 317.592 153.132 317.208 153.012C316.824 152.892 316.48 152.708 316.176 152.46C315.88 152.212 315.64 151.896 315.456 151.512C315.28 151.12 315.192 150.652 315.192 150.108C315.192 149.604 315.336 149.136 315.624 148.704C315.912 148.272 316.364 147.896 316.98 147.576C317.596 147.256 318.384 147 319.344 146.808C320.312 146.616 321.472 146.504 322.824 146.472V145.224C322.824 144.12 322.584 143.272 322.104 142.68C321.632 142.08 320.928 141.78 319.992 141.78C319.416 141.78 318.924 141.86 318.516 142.02C318.116 142.18 317.776 142.356 317.496 142.548C317.216 142.74 316.988 142.916 316.812 143.076C316.636 143.236 316.488 143.316 316.368 143.316C316.28 143.316 316.208 143.296 316.152 143.256C316.096 143.216 316.048 143.164 316.008 143.1L315.804 142.752ZM334.125 146.88V141.852H331.569C331.009 141.852 330.537 141.932 330.153 142.092C329.777 142.252 329.469 142.456 329.229 142.704C328.997 142.952 328.829 143.228 328.725 143.532C328.629 143.836 328.581 144.136 328.581 144.432C328.581 144.816 328.657 145.16 328.809 145.464C328.969 145.768 329.197 146.024 329.493 146.232C329.789 146.44 330.149 146.6 330.573 146.712C330.997 146.824 331.473 146.88 332.001 146.88H334.125ZM335.241 141.06V153H334.125V147.636H332.685C332.485 147.636 332.313 147.648 332.169 147.672C332.033 147.696 331.909 147.736 331.797 147.792C331.693 147.848 331.597 147.92 331.509 148.008C331.421 148.088 331.329 148.192 331.233 148.32L327.741 152.592C327.661 152.728 327.561 152.832 327.441 152.904C327.329 152.968 327.169 153 326.961 153H326.169L330.213 148.104C330.429 147.76 330.721 147.528 331.089 147.408C330.433 147.36 329.873 147.244 329.409 147.06C328.953 146.876 328.577 146.648 328.281 146.376C327.993 146.096 327.781 145.784 327.645 145.44C327.517 145.088 327.453 144.716 327.453 144.324C327.453 143.94 327.525 143.556 327.669 143.172C327.813 142.78 328.045 142.428 328.365 142.116C328.693 141.804 329.117 141.552 329.637 141.36C330.157 141.16 330.789 141.06 331.533 141.06H335.241ZM344.867 142.188C345.291 141.796 345.815 141.48 346.439 141.24C347.071 140.992 347.811 140.868 348.659 140.868C349.363 140.868 349.979 140.956 350.507 141.132C351.035 141.308 351.475 141.54 351.827 141.828C352.179 142.108 352.439 142.428 352.607 142.788C352.783 143.148 352.871 143.512 352.871 143.88C352.871 144.136 352.823 144.404 352.727 144.684C352.639 144.956 352.491 145.216 352.283 145.464C352.083 145.712 351.815 145.94 351.479 146.148C351.151 146.348 350.747 146.504 350.267 146.616C351.227 146.816 351.955 147.188 352.451 147.732C352.947 148.268 353.195 148.912 353.195 149.664C353.195 150.184 353.079 150.66 352.847 151.092C352.615 151.516 352.295 151.884 351.887 152.196C351.479 152.5 351.003 152.736 350.459 152.904C349.915 153.072 349.331 153.156 348.707 153.156C348.267 153.156 347.843 153.112 347.435 153.024C347.027 152.944 346.647 152.828 346.295 152.676C345.943 152.524 345.623 152.344 345.335 152.136C345.055 151.928 344.823 151.704 344.639 151.464L344.939 151.08C345.003 151 345.083 150.96 345.179 150.96C345.275 150.96 345.399 151.028 345.551 151.164C345.711 151.3 345.923 151.448 346.187 151.608C346.459 151.768 346.791 151.916 347.183 152.052C347.583 152.188 348.067 152.256 348.635 152.256C349.163 152.256 349.639 152.192 350.063 152.064C350.487 151.928 350.851 151.744 351.155 151.512C351.459 151.272 351.691 150.988 351.851 150.66C352.019 150.332 352.103 149.972 352.103 149.58C352.103 149.212 352.023 148.876 351.863 148.572C351.711 148.26 351.479 147.996 351.167 147.78C350.863 147.556 350.483 147.384 350.027 147.264C349.571 147.136 349.047 147.072 348.455 147.072H347.111V146.28H348.455C348.967 146.28 349.431 146.224 349.847 146.112C350.271 145.992 350.627 145.832 350.915 145.632C351.211 145.424 351.439 145.184 351.599 144.912C351.759 144.632 351.839 144.328 351.839 144C351.839 143.712 351.775 143.436 351.647 143.172C351.519 142.9 351.323 142.66 351.059 142.452C350.795 142.244 350.459 142.08 350.051 141.96C349.651 141.832 349.175 141.768 348.623 141.768C348.095 141.768 347.643 141.82 347.267 141.924C346.891 142.028 346.579 142.144 346.331 142.272C346.083 142.4 345.883 142.516 345.731 142.62C345.587 142.724 345.479 142.776 345.407 142.776C345.343 142.776 345.291 142.764 345.251 142.74C345.211 142.716 345.171 142.672 345.131 142.608L344.867 142.188ZM363.09 147.228C361.954 147.268 360.974 147.36 360.15 147.504C359.334 147.64 358.658 147.828 358.122 148.068C357.594 148.308 357.202 148.596 356.946 148.932C356.69 149.26 356.562 149.636 356.562 150.06C356.562 150.46 356.626 150.808 356.754 151.104C356.89 151.392 357.066 151.632 357.282 151.824C357.506 152.008 357.762 152.144 358.05 152.232C358.338 152.32 358.638 152.364 358.95 152.364C359.414 152.364 359.838 152.316 360.222 152.22C360.614 152.116 360.974 151.976 361.302 151.8C361.638 151.616 361.95 151.4 362.238 151.152C362.526 150.904 362.81 150.636 363.09 150.348V147.228ZM356.07 142.752C356.694 142.128 357.35 141.656 358.038 141.336C358.726 141.016 359.506 140.856 360.378 140.856C361.018 140.856 361.578 140.96 362.058 141.168C362.538 141.368 362.934 141.66 363.246 142.044C363.566 142.42 363.806 142.88 363.966 143.424C364.126 143.96 364.206 144.56 364.206 145.224V153H363.75C363.51 153 363.362 152.888 363.306 152.664L363.138 151.128C362.81 151.448 362.482 151.736 362.154 151.992C361.834 152.248 361.498 152.464 361.146 152.64C360.794 152.816 360.414 152.952 360.006 153.048C359.598 153.144 359.15 153.192 358.662 153.192C358.254 153.192 357.858 153.132 357.474 153.012C357.09 152.892 356.746 152.708 356.442 152.46C356.146 152.212 355.906 151.896 355.722 151.512C355.546 151.12 355.458 150.652 355.458 150.108C355.458 149.604 355.602 149.136 355.89 148.704C356.178 148.272 356.63 147.896 357.246 147.576C357.862 147.256 358.65 147 359.61 146.808C360.578 146.616 361.738 146.504 363.09 146.472V145.224C363.09 144.12 362.85 143.272 362.37 142.68C361.898 142.08 361.194 141.78 360.258 141.78C359.682 141.78 359.19 141.86 358.782 142.02C358.382 142.18 358.042 142.356 357.762 142.548C357.482 142.74 357.254 142.916 357.078 143.076C356.902 143.236 356.754 143.316 356.634 143.316C356.546 143.316 356.474 143.296 356.418 143.256C356.362 143.216 356.314 143.164 356.274 143.1L356.07 142.752ZM385.755 152.124V156.876C385.755 157.132 385.635 157.26 385.395 157.26H384.735V153H368.031V141.06H369.183V152.124H375.231V141.06H376.371V152.124H382.419V141.06H383.571V152.124H385.755ZM397.941 141.06V153H396.801V143.376C396.801 143.264 396.805 143.144 396.813 143.016C396.821 142.888 396.833 142.76 396.849 142.632C396.793 142.744 396.737 142.848 396.681 142.944C396.633 143.032 396.581 143.112 396.525 143.184C396.509 143.2 396.397 143.352 396.189 143.64C395.981 143.92 395.705 144.284 395.361 144.732C395.025 145.18 394.641 145.688 394.209 146.256C393.785 146.824 393.353 147.404 392.913 147.996C391.873 149.38 390.693 150.952 389.373 152.712C389.325 152.784 389.261 152.852 389.181 152.916C389.109 152.972 389.029 153 388.941 153H388.281V141.06H389.433V150.684C389.433 150.796 389.429 150.916 389.421 151.044C389.413 151.172 389.401 151.3 389.385 151.428C389.433 151.316 389.485 151.216 389.541 151.128C389.597 151.032 389.649 150.948 389.697 150.876C389.705 150.86 389.813 150.712 390.021 150.432C390.237 150.152 390.513 149.788 390.849 149.34C391.193 148.884 391.577 148.372 392.001 147.804C392.425 147.236 392.861 146.656 393.309 146.064C394.349 144.68 395.529 143.112 396.849 141.36C396.897 141.28 396.957 141.212 397.029 141.156C397.109 141.092 397.193 141.06 397.281 141.06H397.941ZM411.426 141.936H406.434V153H405.282V141.936H400.29V141.06H411.426V141.936ZM420.277 147.228C419.141 147.268 418.161 147.36 417.337 147.504C416.521 147.64 415.845 147.828 415.309 148.068C414.781 148.308 414.389 148.596 414.133 148.932C413.877 149.26 413.749 149.636 413.749 150.06C413.749 150.46 413.813 150.808 413.941 151.104C414.077 151.392 414.253 151.632 414.469 151.824C414.693 152.008 414.949 152.144 415.237 152.232C415.525 152.32 415.825 152.364 416.137 152.364C416.601 152.364 417.025 152.316 417.409 152.22C417.801 152.116 418.161 151.976 418.489 151.8C418.825 151.616 419.137 151.4 419.425 151.152C419.713 150.904 419.997 150.636 420.277 150.348V147.228ZM413.257 142.752C413.881 142.128 414.537 141.656 415.225 141.336C415.913 141.016 416.693 140.856 417.565 140.856C418.205 140.856 418.765 140.96 419.245 141.168C419.725 141.368 420.121 141.66 420.433 142.044C420.753 142.42 420.993 142.88 421.153 143.424C421.313 143.96 421.393 144.56 421.393 145.224V153H420.937C420.697 153 420.549 152.888 420.493 152.664L420.325 151.128C419.997 151.448 419.669 151.736 419.341 151.992C419.021 152.248 418.685 152.464 418.333 152.64C417.981 152.816 417.601 152.952 417.193 153.048C416.785 153.144 416.337 153.192 415.849 153.192C415.441 153.192 415.045 153.132 414.661 153.012C414.277 152.892 413.933 152.708 413.629 152.46C413.333 152.212 413.093 151.896 412.909 151.512C412.733 151.12 412.645 150.652 412.645 150.108C412.645 149.604 412.789 149.136 413.077 148.704C413.365 148.272 413.817 147.896 414.433 147.576C415.049 147.256 415.837 147 416.797 146.808C417.765 146.616 418.925 146.504 420.277 146.472V145.224C420.277 144.12 420.037 143.272 419.557 142.68C419.085 142.08 418.381 141.78 417.445 141.78C416.869 141.78 416.377 141.86 415.969 142.02C415.569 142.18 415.229 142.356 414.949 142.548C414.669 142.74 414.441 142.916 414.265 143.076C414.089 143.236 413.941 143.316 413.821 143.316C413.733 143.316 413.661 143.296 413.605 143.256C413.549 143.216 413.501 143.164 413.461 143.1L413.257 142.752Z" fill="white"/>
<defs>
<filter id="filter0_d_356_690" x="70.5063" y="-7.32935" width="103.542" height="184.438" filterUnits="userSpaceOnUse" color-interpolation-filters="sRGB">
<feFlood flood-opacity="0" result="BackgroundImageFix"/>
<feColorMatrix in="SourceAlpha" type="matrix" values="0 0 0 0 0 0 0 0 0 0 0 0 0 0 0 0 0 0 127 0" result="hardAlpha"/>
<feOffset dx="-7" dy="9"/>
<feGaussianBlur stdDeviation="7.5"/>
<feComposite in2="hardAlpha" operator="out"/>
<feColorMatrix type="matrix" values="0 0 0 0 0.208084 0 0 0 0 0.470833 0 0 0 0 0.103976 0 0 0 0.75 0"/>
<feBlend mode="normal" in2="BackgroundImageFix" result="effect1_dropShadow_356_690"/>
<feBlend mode="normal" in="SourceGraphic" in2="effect1_dropShadow_356_690" result="shape"/>
</filter>
</defs>
</svg>
